# xmcd CD database file
#
# Track frame offsets:
#	150
#	18070
#	34602
#	47145
#	86772
#	121375
#	155677
#	184845
#	224250
#
# Disc length: 3461 seconds
#
# Revision: 4
# Processed by: cddbd v1.5.1PL0 Copyright (c) Steve Scherf et al.
# Submitted via: CDex 1.51
#
DISCID=720d8309
DTITLE=Gloria Estefan - Out Of Nowhere [CD5 Maxi-Single)
DYEAR=2001
DGENRE=House
TTITLE0=Out Of Nowhere (Thunderpuss Radio Edit)
TTITLE1=Out Of Nowhere (Metro Radio Edit)
TTITLE2=Out Of Nowhere (Boris and Beck Radio Edit)
TTITLE3=Out Of Nowhere (Thunderpuss Club Mix)
TTITLE4=Out Of Nowhere (Obadam's Afro-Samba Mix)
TTITLE5=Out Of Nowhere (Boris and Beck Uplifting Club Mix)
TTITLE6=Out Of Nowhere (Metro Extended Remix)
TTITLE7=Out Of Nowhere (Vito Andolini's High Desert Mix)
TTITLE8=Y-Tu-Conga (Unreleased Mix)
EXTD=YEAR: 2001
EXTT0=
EXTT1=
EXTT2=
EXTT3=
EXTT4=
EXTT5=
EXTT6=
EXTT7=
EXTT8=
PLAYORDER=
